<?xml version="1.0" encoding="UTF-8"?>
<svg id="Layer_2" data-name="Layer 2" xmlns="http://www.w3.org/2000/svg" viewBox="0 0 559.93 260">
  <defs>
    <style>
      .cls-1 {
        fill: #fff;
      }

      .cls-1, .cls-2, .cls-3 {
        stroke: #000;
        stroke-miterlimit: 10;
        stroke-width: 10px;
      }

      .cls-2 {
        fill: #f7931e;
      }

      .cls-3 {
        fill: #fbb03b;
      }
    </style>
  </defs>
  <g id="Layer_1-2" data-name="Layer 1">
    <g>
      <path class="cls-2" d="M279.97,132.5c-57.08,11.56-100.04,62.01-100.04,122.5h-49.93c0-69.04,55.97-125,125-125,8.55,0,16.9.86,24.97,2.5Z"/>
      <path class="cls-3" d="M554.93,255h-49.93c0-129.65-98.69-236.24-225.04-248.77,8.21-.81,16.54-1.23,24.97-1.23,138.07,0,250,111.93,250,250Z"/>
      <path class="cls-1" d="M505,255h-75.07c0-69.04-55.97-125-125-125-8.55,0-16.9.86-24.96,2.5-8.07-1.64-16.42-2.5-24.97-2.5-69.03,0-125,55.96-125,125H54.93C54.93,125.36,153.6,18.76,279.96,6.23c126.35,12.53,225.04,119.12,225.04,248.77Z"/>
      <path class="cls-1" d="M505,255h-125c0-60.49-42.95-110.94-100.03-122.5-8.07-1.64-16.42-2.5-24.97-2.5-69.03,0-125,55.96-125,125H5C5,116.93,116.93,5,255,5c8.42,0,16.75.42,24.96,1.23,126.35,12.53,225.04,119.12,225.04,248.77Z"/>
    </g>
  </g>
</svg>