<?xml version="1.0" encoding="UTF-8"?>
<svg id="Layer_2" data-name="Layer 2" xmlns="http://www.w3.org/2000/svg" viewBox="0 0 372.67 265">
  <defs>
    <style>
      .cls-1 {
        fill: none;
        stroke: #f4f4ed;
        stroke-miterlimit: 10;
        stroke-width: 15px;
      }
    </style>
  </defs>
  <g id="Layer_1-2" data-name="Layer 1">
    <path class="cls-1" d="M167.54,215.35l5.65-10.17,88.16-163.19c.35-.65,1.03-1.06,1.77-1.07l99.98-1.41c1.14-.02,2.07.9,2.07,2.04v36.63c0,1.11-.89,2.02-2,2.04l-62.51,1.34c-1.5.03-2.46,1.62-1.78,2.96l64.81,127.91c.68,1.35-.28,2.94-1.79,2.96l-194.14,2.84c-.64,0-1.25-.28-1.64-.79l-33.69-43.55c-1.08-1.4-3.3-.86-3.62.88l-14.99,81.05c-.18.97-1.02,1.67-2.01,1.67H9.54c-1.3,0-2.27-1.19-2-2.46L50.06,53.57c.27-1.27-.7-2.46-2-2.46H9.86c-1.39,0-2.38-1.36-1.94-2.69L21.08,8.9c.28-.83,1.06-1.4,1.94-1.4h126.44c.72,0,1.38.37,1.75.99l59.09,97.85,8.07,13.81"/>
  </g>
</svg>